<mxfile host="app.diagrams.net" agent="Mozilla/5.0 (Windows NT 10.0; Win64; x64) AppleWebKit/537.36 (KHTML, like Gecko) Chrome/138.0.0.0 Safari/537.36 Edg/138.0.0.0" version="28.0.3" pages="2">
  <diagram name="페이지-1" id="KHk0nPtYh4eh7Fd_yaVx">
    <mxGraphModel dx="5647" dy="4141" grid="1" gridSize="10" guides="1" tooltips="1" connect="1" arrows="1" fold="1" page="1" pageScale="1" pageWidth="827" pageHeight="1169" math="0" shadow="0">
      <root>
        <mxCell id="0" />
        <mxCell id="1" parent="0" />
        <mxCell id="G9qvY0UhT8ZJuswkd91p-95" value="" style="rounded=0;whiteSpace=wrap;html=1;fillColor=light-dark(#FFFFFF,#FFFFFF);fontSize=16;strokeWidth=2;" vertex="1" parent="1">
          <mxGeometry x="-170" y="-1030" width="1700" height="4300" as="geometry" />
        </mxCell>
        <mxCell id="G9qvY0UhT8ZJuswkd91p-177" value="" style="rounded=0;whiteSpace=wrap;html=1;strokeColor=light-dark(#000000,#000000);fillColor=none;strokeWidth=3;" vertex="1" parent="1">
          <mxGeometry x="220" y="-700" width="1150" height="3940" as="geometry" />
        </mxCell>
        <mxCell id="G9qvY0UhT8ZJuswkd91p-1" value="&lt;font&gt;비회원 사용자&lt;/font&gt;" style="shape=umlActor;verticalLabelPosition=bottom;verticalAlign=top;html=1;outlineConnect=0;fontSize=16;strokeWidth=2;strokeColor=light-dark(#000000,#000000);align=center;fontFamily=Helvetica;fontColor=light-dark(#000000,#000000);fontStyle=1;fillColor=default;" vertex="1" parent="1">
          <mxGeometry x="60" y="-60" width="90" height="180" as="geometry" />
        </mxCell>
        <mxCell id="G9qvY0UhT8ZJuswkd91p-5" value="회원가입" style="ellipse;whiteSpace=wrap;fillColor=light-dark(#55C6FF,#FFFF60);fontSize=16;fontStyle=1;labelBackgroundColor=none;strokeColor=light-dark(#000000,#000000);gradientColor=none;gradientDirection=east;fontColor=light-dark(#000000,#000000);strokeWidth=3;align=center;verticalAlign=middle;fontFamily=Helvetica;" vertex="1" parent="1">
          <mxGeometry x="280" width="120" height="80" as="geometry" />
        </mxCell>
        <mxCell id="G9qvY0UhT8ZJuswkd91p-6" value="로그인" style="ellipse;whiteSpace=wrap;html=1;fontSize=16;strokeColor=light-dark(#000000,#000000);align=center;verticalAlign=middle;fontFamily=Helvetica;fontColor=light-dark(#000000,#000000);fontStyle=1;labelBackgroundColor=none;fillColor=light-dark(#55C6FF,#0ABEEB);gradientColor=none;gradientDirection=east;opacity=80;strokeWidth=3;" vertex="1" parent="1">
          <mxGeometry x="280" y="740" width="120" height="80" as="geometry" />
        </mxCell>
        <mxCell id="G9qvY0UhT8ZJuswkd91p-7" value="게시글 목록 조회" style="ellipse;whiteSpace=wrap;html=1;fontSize=16;strokeColor=light-dark(#000000,#000000);align=center;verticalAlign=middle;fontFamily=Helvetica;fontColor=light-dark(#000000,#000000);fontStyle=1;labelBackgroundColor=none;fillColor=light-dark(#55C6FF,#0ABEEB);gradientColor=none;gradientDirection=east;opacity=80;strokeWidth=3;" vertex="1" parent="1">
          <mxGeometry x="605" y="740" width="120" height="80" as="geometry" />
        </mxCell>
        <mxCell id="G9qvY0UhT8ZJuswkd91p-8" value="댓글 작성" style="ellipse;whiteSpace=wrap;html=1;fontSize=16;strokeColor=light-dark(#000000,#000000);align=center;verticalAlign=middle;fontFamily=Helvetica;fontColor=light-dark(#000000,#000000);fontStyle=1;labelBackgroundColor=none;fillColor=light-dark(#55C6FF,#0ABEEB);gradientColor=none;gradientDirection=east;opacity=80;strokeWidth=3;" vertex="1" parent="1">
          <mxGeometry x="795" y="1366" width="120" height="80" as="geometry" />
        </mxCell>
        <mxCell id="G9qvY0UhT8ZJuswkd91p-10" value="팔로우" style="ellipse;whiteSpace=wrap;html=1;fontSize=16;strokeColor=light-dark(#000000,#000000);align=center;verticalAlign=middle;fontFamily=Helvetica;fontColor=light-dark(#000000,#000000);fontStyle=1;labelBackgroundColor=none;fillColor=light-dark(#55C6FF,#0ABEEB);gradientColor=none;gradientDirection=east;opacity=80;strokeWidth=3;" vertex="1" parent="1">
          <mxGeometry x="976.5" y="920" width="120" height="80" as="geometry" />
        </mxCell>
        <mxCell id="G9qvY0UhT8ZJuswkd91p-15" value="게시글 수정" style="ellipse;whiteSpace=wrap;html=1;fontSize=16;strokeColor=light-dark(#000000,#000000);align=center;verticalAlign=middle;fontFamily=Helvetica;fontColor=light-dark(#000000,#000000);fontStyle=1;labelBackgroundColor=none;fillColor=light-dark(#55C6FF,#0ABEEB);gradientColor=none;gradientDirection=east;opacity=80;strokeWidth=3;" vertex="1" parent="1">
          <mxGeometry x="957" y="378" width="120" height="80" as="geometry" />
        </mxCell>
        <mxCell id="G9qvY0UhT8ZJuswkd91p-16" value="게시글 관리" style="ellipse;whiteSpace=wrap;html=1;fontSize=16;strokeColor=light-dark(#000000,#000000);align=center;verticalAlign=middle;fontFamily=Helvetica;fontColor=light-dark(#000000,#000000);fontStyle=1;labelBackgroundColor=none;fillColor=light-dark(#55C6FF,#0ABEEB);gradientColor=none;gradientDirection=east;opacity=80;strokeWidth=3;" vertex="1" parent="1">
          <mxGeometry x="795" y="433" width="120" height="80" as="geometry" />
        </mxCell>
        <mxCell id="G9qvY0UhT8ZJuswkd91p-17" value="게시글 작성" style="ellipse;whiteSpace=wrap;html=1;fontSize=16;strokeColor=light-dark(#000000,#000000);align=center;verticalAlign=middle;fontFamily=Helvetica;fontColor=light-dark(#000000,#000000);fontStyle=1;labelBackgroundColor=none;fillColor=light-dark(#55C6FF,#0ABEEB);gradientColor=none;gradientDirection=east;opacity=80;strokeWidth=3;" vertex="1" parent="1">
          <mxGeometry x="605" y="433" width="120" height="80" as="geometry" />
        </mxCell>
        <mxCell id="G9qvY0UhT8ZJuswkd91p-18" value="게시글 삭제" style="ellipse;whiteSpace=wrap;html=1;fontSize=16;strokeColor=light-dark(#000000,#000000);align=center;verticalAlign=middle;fontFamily=Helvetica;fontColor=light-dark(#000000,#000000);fontStyle=1;labelBackgroundColor=none;fillColor=light-dark(#55C6FF,#0ABEEB);gradientColor=none;gradientDirection=east;opacity=80;strokeWidth=3;" vertex="1" parent="1">
          <mxGeometry x="957" y="488" width="120" height="80" as="geometry" />
        </mxCell>
        <mxCell id="G9qvY0UhT8ZJuswkd91p-20" value="댓글 수정" style="ellipse;whiteSpace=wrap;html=1;fontSize=16;strokeColor=light-dark(#000000,#000000);align=center;verticalAlign=middle;fontFamily=Helvetica;fontColor=light-dark(#000000,#000000);fontStyle=1;labelBackgroundColor=none;fillColor=light-dark(#55C6FF,#0ABEEB);gradientColor=none;gradientDirection=east;opacity=80;strokeWidth=3;" vertex="1" parent="1">
          <mxGeometry x="1148.5" y="1311" width="120" height="80" as="geometry" />
        </mxCell>
        <mxCell id="G9qvY0UhT8ZJuswkd91p-21" value="댓글 관리" style="ellipse;whiteSpace=wrap;html=1;fontSize=16;strokeColor=light-dark(#000000,#000000);align=center;verticalAlign=middle;fontFamily=Helvetica;fontColor=light-dark(#000000,#000000);fontStyle=1;labelBackgroundColor=none;fillColor=light-dark(#55C6FF,#0ABEEB);gradientColor=none;gradientDirection=east;opacity=80;strokeWidth=3;" vertex="1" parent="1">
          <mxGeometry x="976.5" y="1366" width="120" height="80" as="geometry" />
        </mxCell>
        <mxCell id="G9qvY0UhT8ZJuswkd91p-22" value="댓글 삭제" style="ellipse;whiteSpace=wrap;html=1;fontSize=16;strokeColor=light-dark(#000000,#000000);align=center;verticalAlign=middle;fontFamily=Helvetica;fontColor=light-dark(#000000,#000000);fontStyle=1;labelBackgroundColor=none;fillColor=light-dark(#55C6FF,#0ABEEB);gradientColor=none;gradientDirection=east;opacity=80;strokeWidth=3;" vertex="1" parent="1">
          <mxGeometry x="1148.5" y="1421" width="120" height="80" as="geometry" />
        </mxCell>
        <mxCell id="G9qvY0UhT8ZJuswkd91p-24" value="게시글 즐겨찾기" style="ellipse;whiteSpace=wrap;html=1;fontSize=16;strokeColor=light-dark(#000000,#000000);align=center;verticalAlign=middle;fontFamily=Helvetica;fontColor=light-dark(#000000,#000000);fontStyle=1;labelBackgroundColor=none;fillColor=light-dark(#55C6FF,#0ABEEB);gradientColor=none;gradientDirection=east;opacity=80;strokeWidth=3;" vertex="1" parent="1">
          <mxGeometry x="795" y="690" width="120" height="80" as="geometry" />
        </mxCell>
        <mxCell id="G9qvY0UhT8ZJuswkd91p-25" value="설정" style="ellipse;whiteSpace=wrap;html=1;fontSize=16;strokeColor=light-dark(#000000,#000000);align=center;verticalAlign=middle;fontFamily=Helvetica;fontColor=light-dark(#000000,#000000);fontStyle=1;labelBackgroundColor=none;fillColor=light-dark(#55C6FF,#0ABEEB);gradientColor=none;gradientDirection=east;opacity=80;strokeWidth=3;" vertex="1" parent="1">
          <mxGeometry x="595" y="-200" width="120" height="80" as="geometry" />
        </mxCell>
        <mxCell id="G9qvY0UhT8ZJuswkd91p-26" value="계정 설정" style="ellipse;whiteSpace=wrap;html=1;fontSize=16;strokeColor=light-dark(#000000,#000000);align=center;verticalAlign=middle;fontFamily=Helvetica;fontColor=light-dark(#000000,#000000);fontStyle=1;labelBackgroundColor=none;fillColor=light-dark(#55C6FF,#0ABEEB);gradientColor=none;gradientDirection=east;opacity=80;strokeWidth=3;" vertex="1" parent="1">
          <mxGeometry x="775" y="50" width="120" height="80" as="geometry" />
        </mxCell>
        <mxCell id="G9qvY0UhT8ZJuswkd91p-27" value="프로필 사진 변경" style="ellipse;whiteSpace=wrap;html=1;fontSize=16;strokeColor=light-dark(#000000,#000000);align=center;verticalAlign=middle;fontFamily=Helvetica;fontColor=light-dark(#000000,#000000);fontStyle=1;labelBackgroundColor=none;fillColor=light-dark(#55C6FF,#0ABEEB);gradientColor=none;gradientDirection=east;opacity=80;strokeWidth=3;" vertex="1" parent="1">
          <mxGeometry x="955" y="230" width="120" height="80" as="geometry" />
        </mxCell>
        <mxCell id="G9qvY0UhT8ZJuswkd91p-29" value="닉네임 변경" style="ellipse;whiteSpace=wrap;html=1;fontSize=16;strokeColor=light-dark(#000000,#000000);align=center;verticalAlign=middle;fontFamily=Helvetica;fontColor=light-dark(#000000,#000000);fontStyle=1;labelBackgroundColor=none;fillColor=light-dark(#55C6FF,#0ABEEB);gradientColor=none;gradientDirection=east;opacity=80;strokeWidth=3;" vertex="1" parent="1">
          <mxGeometry x="955" y="110" width="120" height="80" as="geometry" />
        </mxCell>
        <mxCell id="G9qvY0UhT8ZJuswkd91p-30" value="프로필 소개 변경" style="ellipse;whiteSpace=wrap;html=1;fontSize=16;strokeColor=light-dark(#000000,#000000);align=center;verticalAlign=middle;fontFamily=Helvetica;fontColor=light-dark(#000000,#000000);fontStyle=1;labelBackgroundColor=none;fillColor=light-dark(#55C6FF,#0ABEEB);gradientColor=none;gradientDirection=east;opacity=80;strokeWidth=3;" vertex="1" parent="1">
          <mxGeometry x="955" y="-10" width="120" height="80" as="geometry" />
        </mxCell>
        <mxCell id="G9qvY0UhT8ZJuswkd91p-31" value="회원 탈퇴" style="ellipse;whiteSpace=wrap;html=1;fontSize=16;strokeColor=light-dark(#000000,#000000);align=center;verticalAlign=middle;fontFamily=Helvetica;fontColor=light-dark(#000000,#000000);fontStyle=1;labelBackgroundColor=none;fillColor=light-dark(#55C6FF,#0ABEEB);gradientColor=none;gradientDirection=east;opacity=80;strokeWidth=3;" vertex="1" parent="1">
          <mxGeometry x="955" y="-130" width="120" height="80" as="geometry" />
        </mxCell>
        <mxCell id="G9qvY0UhT8ZJuswkd91p-33" value="구독 관리" style="ellipse;whiteSpace=wrap;html=1;fontSize=16;strokeColor=light-dark(#000000,#000000);align=center;verticalAlign=middle;fontFamily=Helvetica;fontColor=light-dark(#000000,#000000);fontStyle=1;labelBackgroundColor=none;fillColor=light-dark(#55C6FF,#0ABEEB);gradientColor=none;gradientDirection=east;opacity=80;strokeWidth=3;" vertex="1" parent="1">
          <mxGeometry x="775" y="-430" width="120" height="80" as="geometry" />
        </mxCell>
        <mxCell id="G9qvY0UhT8ZJuswkd91p-34" value="구독 취소" style="ellipse;whiteSpace=wrap;html=1;fontSize=16;strokeColor=light-dark(#000000,#000000);align=center;verticalAlign=middle;fontFamily=Helvetica;fontColor=light-dark(#000000,#000000);fontStyle=1;labelBackgroundColor=none;fillColor=light-dark(#55C6FF,#0ABEEB);gradientColor=none;gradientDirection=east;opacity=80;strokeWidth=3;" vertex="1" parent="1">
          <mxGeometry x="955" y="-260" width="120" height="80" as="geometry" />
        </mxCell>
        <mxCell id="G9qvY0UhT8ZJuswkd91p-35" value="결제 내역 확인 및 환불 요청" style="ellipse;whiteSpace=wrap;html=1;fontSize=16;strokeColor=light-dark(#000000,#000000);align=center;verticalAlign=middle;fontFamily=Helvetica;fontColor=light-dark(#000000,#000000);fontStyle=1;labelBackgroundColor=none;fillColor=light-dark(#55C6FF,#0ABEEB);gradientColor=none;gradientDirection=east;opacity=80;strokeWidth=3;" vertex="1" parent="1">
          <mxGeometry x="955" y="-380" width="120" height="80" as="geometry" />
        </mxCell>
        <mxCell id="G9qvY0UhT8ZJuswkd91p-36" value="구독 내역 조회" style="ellipse;whiteSpace=wrap;html=1;fontSize=16;strokeColor=light-dark(#000000,#000000);align=center;verticalAlign=middle;fontFamily=Helvetica;fontColor=light-dark(#000000,#000000);fontStyle=1;labelBackgroundColor=none;fillColor=light-dark(#55C6FF,#0ABEEB);gradientColor=none;gradientDirection=east;opacity=80;strokeWidth=3;" vertex="1" parent="1">
          <mxGeometry x="955" y="-500" width="120" height="80" as="geometry" />
        </mxCell>
        <mxCell id="G9qvY0UhT8ZJuswkd91p-37" value="구독 신청" style="ellipse;whiteSpace=wrap;html=1;fontSize=16;strokeColor=light-dark(#000000,#000000);align=center;verticalAlign=middle;fontFamily=Helvetica;fontColor=light-dark(#000000,#000000);fontStyle=1;labelBackgroundColor=none;fillColor=light-dark(#55C6FF,#0ABEEB);gradientColor=none;gradientDirection=east;opacity=80;strokeWidth=3;" vertex="1" parent="1">
          <mxGeometry x="955" y="-620" width="120" height="80" as="geometry" />
        </mxCell>
        <mxCell id="G9qvY0UhT8ZJuswkd91p-38" value="결제" style="ellipse;whiteSpace=wrap;html=1;fontSize=16;strokeColor=light-dark(#000000,#000000);align=center;verticalAlign=middle;fontFamily=Helvetica;fontColor=light-dark(#000000,#000000);fontStyle=1;labelBackgroundColor=none;fillColor=light-dark(#55C6FF,#0ABEEB);gradientColor=none;gradientDirection=east;opacity=80;strokeWidth=3;" vertex="1" parent="1">
          <mxGeometry x="1127" y="-619" width="120" height="80" as="geometry" />
        </mxCell>
        <mxCell id="G9qvY0UhT8ZJuswkd91p-39" value="게시글 검색" style="ellipse;whiteSpace=wrap;html=1;fontSize=16;strokeColor=light-dark(#000000,#000000);align=center;verticalAlign=middle;fontFamily=Helvetica;fontColor=light-dark(#000000,#000000);fontStyle=1;labelBackgroundColor=none;fillColor=light-dark(#55C6FF,#0ABEEB);gradientColor=none;gradientDirection=east;opacity=80;strokeWidth=3;" vertex="1" parent="1">
          <mxGeometry x="605" y="583" width="120" height="80" as="geometry" />
        </mxCell>
        <mxCell id="G9qvY0UhT8ZJuswkd91p-40" value="회원 프로필 조회" style="ellipse;whiteSpace=wrap;html=1;fontSize=16;strokeColor=light-dark(#000000,#000000);align=center;verticalAlign=middle;fontFamily=Helvetica;fontColor=light-dark(#000000,#000000);fontStyle=1;labelBackgroundColor=none;fillColor=light-dark(#55C6FF,#0ABEEB);gradientColor=none;gradientDirection=east;opacity=80;strokeWidth=3;" vertex="1" parent="1">
          <mxGeometry x="796.5" y="920" width="120" height="80" as="geometry" />
        </mxCell>
        <mxCell id="G9qvY0UhT8ZJuswkd91p-41" value="팔로우 취소" style="ellipse;whiteSpace=wrap;html=1;fontSize=16;strokeColor=light-dark(#000000,#000000);align=center;verticalAlign=middle;fontFamily=Helvetica;fontColor=light-dark(#000000,#000000);fontStyle=1;labelBackgroundColor=none;fillColor=light-dark(#55C6FF,#0ABEEB);gradientColor=none;gradientDirection=east;opacity=80;strokeWidth=3;" vertex="1" parent="1">
          <mxGeometry x="1153.5" y="920" width="120" height="80" as="geometry" />
        </mxCell>
        <mxCell id="G9qvY0UhT8ZJuswkd91p-42" value="게시글 상세 조회" style="ellipse;whiteSpace=wrap;html=1;fontSize=16;strokeColor=light-dark(#000000,#000000);align=center;verticalAlign=middle;fontFamily=Helvetica;fontColor=light-dark(#000000,#000000);fontStyle=1;labelBackgroundColor=none;fillColor=light-dark(#55C6FF,#0ABEEB);gradientColor=none;gradientDirection=east;opacity=80;strokeWidth=3;" vertex="1" parent="1">
          <mxGeometry x="615" y="1306" width="120" height="80" as="geometry" />
        </mxCell>
        <mxCell id="G9qvY0UhT8ZJuswkd91p-57" value="" style="endArrow=none;html=1;rounded=0;entryX=0;entryY=0.5;entryDx=0;entryDy=0;fontSize=16;strokeWidth=2;strokeColor=light-dark(#000000,#000000);exitX=1;exitY=0.5;exitDx=0;exitDy=0;" edge="1" parent="1" source="G9qvY0UhT8ZJuswkd91p-7" target="G9qvY0UhT8ZJuswkd91p-24">
          <mxGeometry width="50" height="50" relative="1" as="geometry">
            <mxPoint x="700" y="910" as="sourcePoint" />
            <mxPoint x="750" y="860" as="targetPoint" />
          </mxGeometry>
        </mxCell>
        <mxCell id="G9qvY0UhT8ZJuswkd91p-61" value="댓글 목록 조회" style="ellipse;whiteSpace=wrap;html=1;fontSize=16;strokeColor=light-dark(#000000,#000000);align=center;verticalAlign=middle;fontFamily=Helvetica;fontColor=light-dark(#000000,#000000);fontStyle=1;labelBackgroundColor=none;fillColor=light-dark(#55C6FF,#0ABEEB);gradientColor=none;gradientDirection=east;opacity=80;strokeWidth=3;" vertex="1" parent="1">
          <mxGeometry x="795" y="1250" width="120" height="80" as="geometry" />
        </mxCell>
        <mxCell id="G9qvY0UhT8ZJuswkd91p-62" value="내 프로필 조회" style="ellipse;whiteSpace=wrap;html=1;fontSize=16;strokeColor=light-dark(#000000,#000000);align=center;verticalAlign=middle;fontFamily=Helvetica;fontColor=light-dark(#000000,#000000);fontStyle=1;labelBackgroundColor=none;fillColor=light-dark(#55C6FF,#0ABEEB);gradientColor=none;gradientDirection=east;opacity=80;strokeWidth=3;" vertex="1" parent="1">
          <mxGeometry x="605" y="1580" width="120" height="80" as="geometry" />
        </mxCell>
        <mxCell id="G9qvY0UhT8ZJuswkd91p-63" value="내가 쓴 게시글" style="ellipse;whiteSpace=wrap;html=1;fontSize=16;strokeColor=light-dark(#000000,#000000);align=center;verticalAlign=middle;fontFamily=Helvetica;fontColor=light-dark(#000000,#000000);fontStyle=1;labelBackgroundColor=none;fillColor=light-dark(#55C6FF,#0ABEEB);gradientColor=none;gradientDirection=east;opacity=80;strokeWidth=3;" vertex="1" parent="1">
          <mxGeometry x="605" y="1745" width="120" height="80" as="geometry" />
        </mxCell>
        <mxCell id="G9qvY0UhT8ZJuswkd91p-64" value="내가 쓴 댓글" style="ellipse;whiteSpace=wrap;html=1;fontSize=16;strokeColor=light-dark(#000000,#000000);align=center;verticalAlign=middle;fontFamily=Helvetica;fontColor=light-dark(#000000,#000000);fontStyle=1;labelBackgroundColor=none;fillColor=light-dark(#55C6FF,#0ABEEB);gradientColor=none;gradientDirection=east;opacity=80;strokeWidth=3;" vertex="1" parent="1">
          <mxGeometry x="605" y="1964" width="120" height="80" as="geometry" />
        </mxCell>
        <mxCell id="G9qvY0UhT8ZJuswkd91p-65" value="게시글 수정" style="ellipse;whiteSpace=wrap;html=1;fontSize=16;strokeColor=light-dark(#000000,#000000);align=center;verticalAlign=middle;fontFamily=Helvetica;fontColor=light-dark(#000000,#000000);fontStyle=1;labelBackgroundColor=none;fillColor=light-dark(#55C6FF,#0ABEEB);gradientColor=none;gradientDirection=east;opacity=80;strokeWidth=3;" vertex="1" parent="1">
          <mxGeometry x="957" y="1690" width="120" height="80" as="geometry" />
        </mxCell>
        <mxCell id="G9qvY0UhT8ZJuswkd91p-66" value="게시글 관리" style="ellipse;whiteSpace=wrap;html=1;fontSize=16;strokeColor=light-dark(#000000,#000000);align=center;verticalAlign=middle;fontFamily=Helvetica;fontColor=light-dark(#000000,#000000);fontStyle=1;labelBackgroundColor=none;fillColor=light-dark(#55C6FF,#0ABEEB);gradientColor=none;gradientDirection=east;opacity=80;strokeWidth=3;" vertex="1" parent="1">
          <mxGeometry x="785" y="1745" width="120" height="80" as="geometry" />
        </mxCell>
        <mxCell id="G9qvY0UhT8ZJuswkd91p-67" value="게시글 삭제" style="ellipse;whiteSpace=wrap;html=1;fontSize=16;strokeColor=light-dark(#000000,#000000);align=center;verticalAlign=middle;fontFamily=Helvetica;fontColor=light-dark(#000000,#000000);fontStyle=1;labelBackgroundColor=none;fillColor=light-dark(#55C6FF,#0ABEEB);gradientColor=none;gradientDirection=east;opacity=80;strokeWidth=3;" vertex="1" parent="1">
          <mxGeometry x="957" y="1800" width="120" height="80" as="geometry" />
        </mxCell>
        <mxCell id="G9qvY0UhT8ZJuswkd91p-68" value="댓글 수정" style="ellipse;whiteSpace=wrap;html=1;fontSize=16;strokeColor=light-dark(#000000,#000000);align=center;verticalAlign=middle;fontFamily=Helvetica;fontColor=light-dark(#000000,#000000);fontStyle=1;labelBackgroundColor=none;fillColor=light-dark(#55C6FF,#0ABEEB);gradientColor=none;gradientDirection=east;opacity=80;strokeWidth=3;" vertex="1" parent="1">
          <mxGeometry x="955" y="1914" width="120" height="80" as="geometry" />
        </mxCell>
        <mxCell id="G9qvY0UhT8ZJuswkd91p-69" value="댓글 관리" style="ellipse;whiteSpace=wrap;html=1;fontSize=16;strokeColor=light-dark(#000000,#000000);align=center;verticalAlign=middle;fontFamily=Helvetica;fontColor=light-dark(#000000,#000000);fontStyle=1;labelBackgroundColor=none;fillColor=light-dark(#55C6FF,#0ABEEB);gradientColor=none;gradientDirection=east;opacity=80;strokeWidth=3;" vertex="1" parent="1">
          <mxGeometry x="783" y="1964" width="120" height="80" as="geometry" />
        </mxCell>
        <mxCell id="G9qvY0UhT8ZJuswkd91p-70" value="댓글 삭제" style="ellipse;whiteSpace=wrap;html=1;fontSize=16;strokeColor=light-dark(#000000,#000000);align=center;verticalAlign=middle;fontFamily=Helvetica;fontColor=light-dark(#000000,#000000);fontStyle=1;labelBackgroundColor=none;fillColor=light-dark(#55C6FF,#0ABEEB);gradientColor=none;gradientDirection=east;opacity=80;strokeWidth=3;" vertex="1" parent="1">
          <mxGeometry x="955" y="2024" width="120" height="80" as="geometry" />
        </mxCell>
        <mxCell id="G9qvY0UhT8ZJuswkd91p-71" value="게시글 신고" style="ellipse;whiteSpace=wrap;html=1;fontSize=16;strokeColor=light-dark(#000000,#000000);align=center;verticalAlign=middle;fontFamily=Helvetica;fontColor=light-dark(#000000,#000000);fontStyle=1;labelBackgroundColor=none;fillColor=light-dark(#55C6FF,#0ABEEB);gradientColor=none;gradientDirection=east;opacity=80;strokeWidth=3;" vertex="1" parent="1">
          <mxGeometry x="795" y="810" width="120" height="80" as="geometry" />
        </mxCell>
        <mxCell id="G9qvY0UhT8ZJuswkd91p-72" value="댓글 신고" style="ellipse;whiteSpace=wrap;html=1;fontSize=16;strokeColor=light-dark(#000000,#000000);align=center;verticalAlign=middle;fontFamily=Helvetica;fontColor=light-dark(#000000,#000000);fontStyle=1;labelBackgroundColor=none;fillColor=light-dark(#55C6FF,#0ABEEB);gradientColor=none;gradientDirection=east;opacity=80;strokeWidth=3;" vertex="1" parent="1">
          <mxGeometry x="976.5" y="1250" width="120" height="80" as="geometry" />
        </mxCell>
        <mxCell id="G9qvY0UhT8ZJuswkd91p-75" value="관리자 로그인" style="ellipse;whiteSpace=wrap;html=1;fontSize=16;strokeColor=light-dark(#000000,#000000);align=center;verticalAlign=middle;fontFamily=Helvetica;fontColor=light-dark(#000000,#000000);fontStyle=1;labelBackgroundColor=none;fillColor=light-dark(#55C6FF,#0ABEEB);gradientColor=none;gradientDirection=east;opacity=80;strokeWidth=3;" vertex="1" parent="1">
          <mxGeometry x="290" y="2725" width="120" height="80" as="geometry" />
        </mxCell>
        <mxCell id="G9qvY0UhT8ZJuswkd91p-76" value="회원 관리" style="ellipse;whiteSpace=wrap;html=1;fontSize=16;strokeColor=light-dark(#000000,#000000);align=center;verticalAlign=middle;fontFamily=Helvetica;fontColor=light-dark(#000000,#000000);fontStyle=1;labelBackgroundColor=none;fillColor=light-dark(#55C6FF,#0ABEEB);gradientColor=none;gradientDirection=east;opacity=80;strokeWidth=3;" vertex="1" parent="1">
          <mxGeometry x="611" y="2290" width="120" height="80" as="geometry" />
        </mxCell>
        <mxCell id="G9qvY0UhT8ZJuswkd91p-77" value="게시글 관리" style="ellipse;whiteSpace=wrap;html=1;fontSize=16;strokeColor=light-dark(#000000,#000000);align=center;verticalAlign=middle;fontFamily=Helvetica;fontColor=light-dark(#000000,#000000);fontStyle=1;labelBackgroundColor=none;fillColor=light-dark(#55C6FF,#0ABEEB);gradientColor=none;gradientDirection=east;opacity=80;strokeWidth=3;" vertex="1" parent="1">
          <mxGeometry x="611" y="2515" width="120" height="80" as="geometry" />
        </mxCell>
        <mxCell id="G9qvY0UhT8ZJuswkd91p-78" value="댓글 관리" style="ellipse;whiteSpace=wrap;html=1;fontSize=16;strokeColor=light-dark(#000000,#000000);align=center;verticalAlign=middle;fontFamily=Helvetica;fontColor=light-dark(#000000,#000000);fontStyle=1;labelBackgroundColor=none;fillColor=light-dark(#55C6FF,#0ABEEB);gradientColor=none;gradientDirection=east;opacity=80;strokeWidth=3;" vertex="1" parent="1">
          <mxGeometry x="611" y="2725" width="120" height="80" as="geometry" />
        </mxCell>
        <mxCell id="G9qvY0UhT8ZJuswkd91p-79" value="결제 관리" style="ellipse;whiteSpace=wrap;html=1;fontSize=16;strokeColor=light-dark(#000000,#000000);align=center;verticalAlign=middle;fontFamily=Helvetica;fontColor=light-dark(#000000,#000000);fontStyle=1;labelBackgroundColor=none;fillColor=light-dark(#55C6FF,#0ABEEB);gradientColor=none;gradientDirection=east;opacity=80;strokeWidth=3;" vertex="1" parent="1">
          <mxGeometry x="611" y="2938" width="120" height="80" as="geometry" />
        </mxCell>
        <mxCell id="G9qvY0UhT8ZJuswkd91p-80" value="서비스 통계" style="ellipse;whiteSpace=wrap;html=1;fontSize=16;strokeColor=light-dark(#000000,#000000);align=center;verticalAlign=middle;fontFamily=Helvetica;fontStyle=1;labelBackgroundColor=none;fillColor=light-dark(#55C6FF,#0ABEEB);gradientColor=none;gradientDirection=east;fontColor=light-dark(#000000,#000000);strokeWidth=3;opacity=80;" vertex="1" parent="1">
          <mxGeometry x="611" y="3115" width="120" height="80" as="geometry" />
        </mxCell>
        <mxCell id="G9qvY0UhT8ZJuswkd91p-81" value="회원 목록 조회" style="ellipse;whiteSpace=wrap;html=1;fontSize=16;strokeColor=light-dark(#000000,#000000);align=center;verticalAlign=middle;fontFamily=Helvetica;fontColor=light-dark(#000000,#000000);fontStyle=1;labelBackgroundColor=none;fillColor=light-dark(#55C6FF,#0ABEEB);gradientColor=none;gradientDirection=east;opacity=80;strokeWidth=3;" vertex="1" parent="1">
          <mxGeometry x="811" y="2345" width="120" height="80" as="geometry" />
        </mxCell>
        <mxCell id="G9qvY0UhT8ZJuswkd91p-82" value="회원 검색" style="ellipse;whiteSpace=wrap;html=1;fontSize=16;strokeColor=light-dark(#000000,#000000);align=center;verticalAlign=middle;fontFamily=Helvetica;fontColor=light-dark(#000000,#000000);fontStyle=1;labelBackgroundColor=none;fillColor=light-dark(#55C6FF,#0ABEEB);gradientColor=none;gradientDirection=east;opacity=80;strokeWidth=3;" vertex="1" parent="1">
          <mxGeometry x="811" y="2240" width="120" height="80" as="geometry" />
        </mxCell>
        <mxCell id="G9qvY0UhT8ZJuswkd91p-84" value="게시글 검색" style="ellipse;whiteSpace=wrap;html=1;fontSize=16;strokeColor=light-dark(#000000,#000000);align=center;verticalAlign=middle;fontFamily=Helvetica;fontColor=light-dark(#000000,#000000);fontStyle=1;labelBackgroundColor=none;fillColor=light-dark(#55C6FF,#0ABEEB);gradientColor=none;gradientDirection=east;opacity=80;strokeWidth=3;" vertex="1" parent="1">
          <mxGeometry x="811" y="2455" width="120" height="80" as="geometry" />
        </mxCell>
        <mxCell id="G9qvY0UhT8ZJuswkd91p-85" value="게시글 목록 조회" style="ellipse;whiteSpace=wrap;html=1;fontSize=16;strokeColor=light-dark(#000000,#000000);align=center;verticalAlign=middle;fontFamily=Helvetica;fontColor=light-dark(#000000,#000000);fontStyle=1;labelBackgroundColor=none;fillColor=light-dark(#55C6FF,#0ABEEB);gradientColor=none;gradientDirection=east;opacity=80;strokeWidth=3;" vertex="1" parent="1">
          <mxGeometry x="811" y="2560" width="120" height="80" as="geometry" />
        </mxCell>
        <mxCell id="G9qvY0UhT8ZJuswkd91p-86" value="댓글 검색" style="ellipse;whiteSpace=wrap;html=1;fontSize=16;strokeColor=light-dark(#000000,#000000);align=center;verticalAlign=middle;fontFamily=Helvetica;fontColor=light-dark(#000000,#000000);fontStyle=1;labelBackgroundColor=none;fillColor=light-dark(#55C6FF,#0ABEEB);gradientColor=none;gradientDirection=east;opacity=80;strokeWidth=3;" vertex="1" parent="1">
          <mxGeometry x="811" y="2667.5" width="120" height="80" as="geometry" />
        </mxCell>
        <mxCell id="G9qvY0UhT8ZJuswkd91p-87" value="댓글 목록 조회" style="ellipse;whiteSpace=wrap;html=1;fontSize=16;strokeColor=light-dark(#000000,#000000);align=center;verticalAlign=middle;fontFamily=Helvetica;fontColor=light-dark(#000000,#000000);fontStyle=1;labelBackgroundColor=none;fillColor=light-dark(#55C6FF,#0ABEEB);gradientColor=none;gradientDirection=east;opacity=80;strokeWidth=3;" vertex="1" parent="1">
          <mxGeometry x="811" y="2772.5" width="120" height="80" as="geometry" />
        </mxCell>
        <mxCell id="G9qvY0UhT8ZJuswkd91p-88" value="회원 정지, 탈퇴" style="ellipse;whiteSpace=wrap;html=1;fontSize=16;strokeColor=light-dark(#000000,#000000);align=center;verticalAlign=middle;fontFamily=Helvetica;fontColor=light-dark(#000000,#000000);fontStyle=1;labelBackgroundColor=none;fillColor=light-dark(#55C6FF,#0ABEEB);gradientColor=none;gradientDirection=east;opacity=80;strokeWidth=3;" vertex="1" parent="1">
          <mxGeometry x="971" y="2345" width="120" height="80" as="geometry" />
        </mxCell>
        <mxCell id="G9qvY0UhT8ZJuswkd91p-89" value="신고글 삭제" style="ellipse;whiteSpace=wrap;html=1;fontSize=16;strokeColor=light-dark(#000000,#000000);align=center;verticalAlign=middle;fontFamily=Helvetica;fontColor=light-dark(#000000,#000000);fontStyle=1;labelBackgroundColor=none;fillColor=light-dark(#55C6FF,#0ABEEB);gradientColor=none;gradientDirection=east;opacity=80;strokeWidth=3;" vertex="1" parent="1">
          <mxGeometry x="971" y="2555" width="120" height="80" as="geometry" />
        </mxCell>
        <mxCell id="G9qvY0UhT8ZJuswkd91p-90" value="신고 댓글 삭제" style="ellipse;whiteSpace=wrap;html=1;fontSize=16;strokeColor=light-dark(#000000,#000000);align=center;verticalAlign=middle;fontFamily=Helvetica;fontColor=light-dark(#000000,#000000);fontStyle=1;labelBackgroundColor=none;fillColor=light-dark(#55C6FF,#0ABEEB);gradientColor=none;gradientDirection=east;opacity=80;strokeWidth=3;" vertex="1" parent="1">
          <mxGeometry x="971" y="2775" width="120" height="80" as="geometry" />
        </mxCell>
        <mxCell id="G9qvY0UhT8ZJuswkd91p-91" value="결재 검색" style="ellipse;whiteSpace=wrap;html=1;fontSize=16;strokeColor=light-dark(#000000,#000000);align=center;verticalAlign=middle;fontFamily=Helvetica;fontColor=light-dark(#000000,#000000);fontStyle=1;labelBackgroundColor=none;fillColor=light-dark(#55C6FF,#0ABEEB);gradientColor=none;gradientDirection=east;opacity=80;strokeWidth=3;" vertex="1" parent="1">
          <mxGeometry x="811" y="2885" width="120" height="80" as="geometry" />
        </mxCell>
        <mxCell id="G9qvY0UhT8ZJuswkd91p-92" value="결제 목록 조회" style="ellipse;whiteSpace=wrap;html=1;fontSize=16;strokeColor=light-dark(#000000,#000000);align=center;verticalAlign=middle;fontFamily=Helvetica;fontColor=light-dark(#000000,#000000);fontStyle=1;labelBackgroundColor=none;fillColor=light-dark(#55C6FF,#0ABEEB);gradientColor=none;gradientDirection=east;opacity=80;strokeWidth=3;" vertex="1" parent="1">
          <mxGeometry x="811" y="2990" width="120" height="80" as="geometry" />
        </mxCell>
        <mxCell id="G9qvY0UhT8ZJuswkd91p-93" value="환불 처리" style="ellipse;whiteSpace=wrap;html=1;fontSize=16;strokeColor=light-dark(#000000,#000000);align=center;verticalAlign=middle;fontFamily=Helvetica;fontColor=light-dark(#000000,#000000);fontStyle=1;labelBackgroundColor=none;fillColor=light-dark(#55C6FF,#0ABEEB);gradientColor=none;gradientDirection=east;opacity=80;strokeWidth=3;" vertex="1" parent="1">
          <mxGeometry x="972" y="2988" width="120" height="80" as="geometry" />
        </mxCell>
        <mxCell id="G9qvY0UhT8ZJuswkd91p-96" value="&lt;font&gt;회원 사용자&lt;/font&gt;" style="shape=umlActor;verticalLabelPosition=bottom;verticalAlign=top;html=1;outlineConnect=0;fontSize=16;strokeWidth=2;strokeColor=light-dark(#000000,#000000);align=center;fontFamily=Helvetica;fontColor=light-dark(#000000,#000000);fontStyle=1;fillColor=default;" vertex="1" parent="1">
          <mxGeometry x="60" y="689" width="90" height="180" as="geometry" />
        </mxCell>
        <mxCell id="G9qvY0UhT8ZJuswkd91p-97" value="&lt;font&gt;관리자&lt;/font&gt;" style="shape=umlActor;verticalLabelPosition=bottom;verticalAlign=top;html=1;outlineConnect=0;fontSize=16;strokeWidth=2;strokeColor=light-dark(#000000,#000000);align=center;fontFamily=Helvetica;fontColor=light-dark(#000000,#000000);fontStyle=1;fillColor=default;" vertex="1" parent="1">
          <mxGeometry x="60" y="2674" width="90" height="180" as="geometry" />
        </mxCell>
        <mxCell id="G9qvY0UhT8ZJuswkd91p-98" value="&lt;font&gt;외부 결제 시스템&lt;/font&gt;" style="shape=umlActor;verticalLabelPosition=bottom;verticalAlign=top;html=1;outlineConnect=0;fontSize=16;strokeWidth=2;strokeColor=light-dark(#000000,#000000);fontColor=light-dark(#000000,#000000);fontStyle=1" vertex="1" parent="1">
          <mxGeometry x="1143" y="-960" width="90" height="180" as="geometry" />
        </mxCell>
        <mxCell id="G9qvY0UhT8ZJuswkd91p-99" value="&lt;font&gt;외부 결제 시스템&lt;/font&gt;" style="shape=umlActor;verticalLabelPosition=bottom;verticalAlign=top;html=1;outlineConnect=0;fontSize=16;strokeWidth=2;strokeColor=light-dark(#000000,#000000);align=center;fontFamily=Helvetica;fontColor=light-dark(#000000,#000000);fontStyle=1;fillColor=default;" vertex="1" parent="1">
          <mxGeometry x="1410" y="2923" width="90" height="180" as="geometry" />
        </mxCell>
        <mxCell id="G9qvY0UhT8ZJuswkd91p-102" value="" style="endArrow=none;html=1;rounded=0;exitX=1;exitY=0.5;exitDx=0;exitDy=0;fontSize=16;" edge="1" parent="1" source="G9qvY0UhT8ZJuswkd91p-75" target="G9qvY0UhT8ZJuswkd91p-78">
          <mxGeometry width="50" height="50" relative="1" as="geometry">
            <mxPoint x="390" y="2830" as="sourcePoint" />
            <mxPoint x="440" y="2780" as="targetPoint" />
          </mxGeometry>
        </mxCell>
        <mxCell id="G9qvY0UhT8ZJuswkd91p-103" value="" style="endArrow=none;html=1;rounded=0;entryX=0.004;entryY=0.569;entryDx=0;entryDy=0;entryPerimeter=0;fontSize=16;strokeWidth=2;strokeColor=light-dark(#000000,#070707);" edge="1" parent="1" target="G9qvY0UhT8ZJuswkd91p-77">
          <mxGeometry width="50" height="50" relative="1" as="geometry">
            <mxPoint x="410" y="2760" as="sourcePoint" />
            <mxPoint x="540" y="2696" as="targetPoint" />
          </mxGeometry>
        </mxCell>
        <mxCell id="G9qvY0UhT8ZJuswkd91p-104" value="" style="endArrow=none;html=1;rounded=0;entryX=1;entryY=0.5;entryDx=0;entryDy=0;exitX=0;exitY=0.5;exitDx=0;exitDy=0;fontSize=16;strokeWidth=2;strokeColor=light-dark(#000000,#070707);" edge="1" parent="1" source="G9qvY0UhT8ZJuswkd91p-79" target="G9qvY0UhT8ZJuswkd91p-75">
          <mxGeometry width="50" height="50" relative="1" as="geometry">
            <mxPoint x="530" y="3031" as="sourcePoint" />
            <mxPoint x="590" y="2840" as="targetPoint" />
          </mxGeometry>
        </mxCell>
        <mxCell id="G9qvY0UhT8ZJuswkd91p-105" value="" style="endArrow=none;html=1;rounded=0;exitX=0;exitY=0.5;exitDx=0;exitDy=0;fontSize=16;strokeWidth=2;strokeColor=light-dark(#000000,#070707);" edge="1" parent="1" source="G9qvY0UhT8ZJuswkd91p-80">
          <mxGeometry width="50" height="50" relative="1" as="geometry">
            <mxPoint x="510" y="3113" as="sourcePoint" />
            <mxPoint x="410" y="2770" as="targetPoint" />
          </mxGeometry>
        </mxCell>
        <mxCell id="G9qvY0UhT8ZJuswkd91p-106" value="" style="endArrow=none;html=1;rounded=0;entryX=0;entryY=0.5;entryDx=0;entryDy=0;fontSize=16;strokeWidth=2;strokeColor=light-dark(#000000,#070707);" edge="1" parent="1" target="G9qvY0UhT8ZJuswkd91p-76">
          <mxGeometry width="50" height="50" relative="1" as="geometry">
            <mxPoint x="410" y="2760" as="sourcePoint" />
            <mxPoint x="390" y="2441" as="targetPoint" />
          </mxGeometry>
        </mxCell>
        <mxCell id="G9qvY0UhT8ZJuswkd91p-107" value="" style="endArrow=none;html=1;rounded=0;entryX=0;entryY=0.5;entryDx=0;entryDy=0;exitX=1;exitY=0.5;exitDx=0;exitDy=0;fontSize=16;strokeWidth=2;strokeColor=light-dark(#000000,#070707);" edge="1" parent="1" source="G9qvY0UhT8ZJuswkd91p-76" target="G9qvY0UhT8ZJuswkd91p-82">
          <mxGeometry width="50" height="50" relative="1" as="geometry">
            <mxPoint x="711" y="2580" as="sourcePoint" />
            <mxPoint x="771" y="2150" as="targetPoint" />
          </mxGeometry>
        </mxCell>
        <mxCell id="G9qvY0UhT8ZJuswkd91p-108" value="" style="endArrow=none;html=1;rounded=0;entryX=0;entryY=0.5;entryDx=0;entryDy=0;exitX=1;exitY=0.5;exitDx=0;exitDy=0;fontSize=16;strokeWidth=2;strokeColor=light-dark(#000000,#070707);" edge="1" parent="1" source="G9qvY0UhT8ZJuswkd91p-76" target="G9qvY0UhT8ZJuswkd91p-81">
          <mxGeometry width="50" height="50" relative="1" as="geometry">
            <mxPoint x="791" y="2410" as="sourcePoint" />
            <mxPoint x="871" y="2360" as="targetPoint" />
          </mxGeometry>
        </mxCell>
        <mxCell id="G9qvY0UhT8ZJuswkd91p-109" value="" style="endArrow=none;html=1;rounded=0;entryX=0;entryY=0.5;entryDx=0;entryDy=0;exitX=1;exitY=0.5;exitDx=0;exitDy=0;fontSize=16;strokeWidth=2;strokeColor=light-dark(#000000,#070707);" edge="1" parent="1" source="G9qvY0UhT8ZJuswkd91p-77" target="G9qvY0UhT8ZJuswkd91p-84">
          <mxGeometry width="50" height="50" relative="1" as="geometry">
            <mxPoint x="781" y="2370" as="sourcePoint" />
            <mxPoint x="861" y="2425" as="targetPoint" />
          </mxGeometry>
        </mxCell>
        <mxCell id="G9qvY0UhT8ZJuswkd91p-110" value="" style="endArrow=none;html=1;rounded=0;entryX=0;entryY=0.5;entryDx=0;entryDy=0;exitX=1;exitY=0.5;exitDx=0;exitDy=0;fontSize=16;strokeWidth=2;strokeColor=light-dark(#000000,#070707);" edge="1" parent="1" source="G9qvY0UhT8ZJuswkd91p-77" target="G9qvY0UhT8ZJuswkd91p-85">
          <mxGeometry width="50" height="50" relative="1" as="geometry">
            <mxPoint x="791" y="2610" as="sourcePoint" />
            <mxPoint x="871" y="2550" as="targetPoint" />
          </mxGeometry>
        </mxCell>
        <mxCell id="G9qvY0UhT8ZJuswkd91p-111" value="" style="endArrow=none;html=1;rounded=0;entryX=0;entryY=0.5;entryDx=0;entryDy=0;exitX=1;exitY=0.5;exitDx=0;exitDy=0;fontSize=16;strokeWidth=2;strokeColor=light-dark(#000000,#070707);" edge="1" parent="1" source="G9qvY0UhT8ZJuswkd91p-81" target="G9qvY0UhT8ZJuswkd91p-88">
          <mxGeometry width="50" height="50" relative="1" as="geometry">
            <mxPoint x="791" y="2600" as="sourcePoint" />
            <mxPoint x="871" y="2645" as="targetPoint" />
          </mxGeometry>
        </mxCell>
        <mxCell id="G9qvY0UhT8ZJuswkd91p-112" value="" style="endArrow=none;html=1;rounded=0;entryX=0;entryY=0.561;entryDx=0;entryDy=0;exitX=1;exitY=0.5;exitDx=0;exitDy=0;entryPerimeter=0;fontSize=16;strokeWidth=2;strokeColor=light-dark(#000000,#070707);" edge="1" parent="1" source="G9qvY0UhT8ZJuswkd91p-85" target="G9qvY0UhT8ZJuswkd91p-89">
          <mxGeometry width="50" height="50" relative="1" as="geometry">
            <mxPoint x="971" y="2430" as="sourcePoint" />
            <mxPoint x="1011" y="2430" as="targetPoint" />
          </mxGeometry>
        </mxCell>
        <mxCell id="G9qvY0UhT8ZJuswkd91p-113" value="" style="endArrow=none;html=1;rounded=0;entryX=0;entryY=0.5;entryDx=0;entryDy=0;exitX=1;exitY=0.5;exitDx=0;exitDy=0;fontSize=16;strokeWidth=2;strokeColor=light-dark(#000000,#070707);" edge="1" parent="1" source="G9qvY0UhT8ZJuswkd91p-78" target="G9qvY0UhT8ZJuswkd91p-86">
          <mxGeometry width="50" height="50" relative="1" as="geometry">
            <mxPoint x="791" y="2600" as="sourcePoint" />
            <mxPoint x="871" y="2645" as="targetPoint" />
          </mxGeometry>
        </mxCell>
        <mxCell id="G9qvY0UhT8ZJuswkd91p-114" value="" style="endArrow=none;html=1;rounded=0;entryX=0;entryY=0.5;entryDx=0;entryDy=0;exitX=1;exitY=0.5;exitDx=0;exitDy=0;fontSize=16;strokeWidth=2;strokeColor=light-dark(#000000,#070707);" edge="1" parent="1" source="G9qvY0UhT8ZJuswkd91p-78" target="G9qvY0UhT8ZJuswkd91p-87">
          <mxGeometry width="50" height="50" relative="1" as="geometry">
            <mxPoint x="801" y="2827" as="sourcePoint" />
            <mxPoint x="881" y="2770" as="targetPoint" />
          </mxGeometry>
        </mxCell>
        <mxCell id="G9qvY0UhT8ZJuswkd91p-115" value="" style="endArrow=none;html=1;rounded=0;exitX=1.004;exitY=0.542;exitDx=0;exitDy=0;exitPerimeter=0;fontSize=16;strokeWidth=2;strokeColor=light-dark(#000000,#070707);" edge="1" parent="1" source="G9qvY0UhT8ZJuswkd91p-87" target="G9qvY0UhT8ZJuswkd91p-90">
          <mxGeometry width="50" height="50" relative="1" as="geometry">
            <mxPoint x="811" y="2820" as="sourcePoint" />
            <mxPoint x="891" y="2868" as="targetPoint" />
          </mxGeometry>
        </mxCell>
        <mxCell id="G9qvY0UhT8ZJuswkd91p-116" value="" style="endArrow=none;html=1;rounded=0;entryX=0;entryY=0.5;entryDx=0;entryDy=0;exitX=1;exitY=0.5;exitDx=0;exitDy=0;fontSize=16;strokeWidth=2;strokeColor=light-dark(#000000,#070707);" edge="1" parent="1" source="G9qvY0UhT8ZJuswkd91p-79" target="G9qvY0UhT8ZJuswkd91p-91">
          <mxGeometry width="50" height="50" relative="1" as="geometry">
            <mxPoint x="841" y="2880" as="sourcePoint" />
            <mxPoint x="921" y="2928" as="targetPoint" />
          </mxGeometry>
        </mxCell>
        <mxCell id="G9qvY0UhT8ZJuswkd91p-117" value="" style="endArrow=none;html=1;rounded=0;entryX=0;entryY=0.5;entryDx=0;entryDy=0;exitX=1;exitY=0.5;exitDx=0;exitDy=0;fontSize=16;strokeWidth=2;strokeColor=light-dark(#000000,#070707);" edge="1" parent="1" source="G9qvY0UhT8ZJuswkd91p-79" target="G9qvY0UhT8ZJuswkd91p-92">
          <mxGeometry width="50" height="50" relative="1" as="geometry">
            <mxPoint x="781" y="3063" as="sourcePoint" />
            <mxPoint x="861" y="3010" as="targetPoint" />
          </mxGeometry>
        </mxCell>
        <mxCell id="G9qvY0UhT8ZJuswkd91p-118" value="" style="endArrow=none;html=1;rounded=0;entryX=-0.002;entryY=0.524;entryDx=0;entryDy=0;exitX=1;exitY=0.5;exitDx=0;exitDy=0;entryPerimeter=0;fontSize=16;strokeWidth=2;strokeColor=light-dark(#000000,#070707);" edge="1" parent="1" source="G9qvY0UhT8ZJuswkd91p-92" target="G9qvY0UhT8ZJuswkd91p-93">
          <mxGeometry width="50" height="50" relative="1" as="geometry">
            <mxPoint x="831" y="3040" as="sourcePoint" />
            <mxPoint x="911" y="3092" as="targetPoint" />
          </mxGeometry>
        </mxCell>
        <mxCell id="G9qvY0UhT8ZJuswkd91p-119" value="" style="endArrow=none;html=1;rounded=0;entryX=0.5;entryY=0.603;entryDx=0;entryDy=0;entryPerimeter=0;exitX=1;exitY=0.524;exitDx=0;exitDy=0;exitPerimeter=0;fontSize=16;strokeWidth=2;strokeColor=light-dark(#000000,#070707);" edge="1" parent="1" source="G9qvY0UhT8ZJuswkd91p-93" target="G9qvY0UhT8ZJuswkd91p-99">
          <mxGeometry width="50" height="50" relative="1" as="geometry">
            <mxPoint x="950" y="3030" as="sourcePoint" />
            <mxPoint x="971" y="3030" as="targetPoint" />
          </mxGeometry>
        </mxCell>
        <mxCell id="G9qvY0UhT8ZJuswkd91p-126" value="" style="endArrow=none;html=1;rounded=0;entryX=0;entryY=0.5;entryDx=0;entryDy=0;fontSize=16;strokeWidth=2;strokeColor=light-dark(#000000,#070707);exitX=0.5;exitY=0.5;exitDx=0;exitDy=0;exitPerimeter=0;" edge="1" parent="1" source="G9qvY0UhT8ZJuswkd91p-97" target="G9qvY0UhT8ZJuswkd91p-75">
          <mxGeometry width="50" height="50" relative="1" as="geometry">
            <mxPoint x="420" y="3020" as="sourcePoint" />
            <mxPoint x="480" y="2590" as="targetPoint" />
          </mxGeometry>
        </mxCell>
        <mxCell id="G9qvY0UhT8ZJuswkd91p-127" style="edgeStyle=orthogonalEdgeStyle;rounded=0;orthogonalLoop=1;jettySize=auto;html=1;entryX=0.5;entryY=0;entryDx=0;entryDy=0;entryPerimeter=0;strokeColor=light-dark(#000000,#000000);strokeWidth=2;" edge="1" parent="1" target="G9qvY0UhT8ZJuswkd91p-96">
          <mxGeometry relative="1" as="geometry">
            <mxPoint x="105" y="150" as="sourcePoint" />
          </mxGeometry>
        </mxCell>
        <mxCell id="G9qvY0UhT8ZJuswkd91p-128" style="edgeStyle=orthogonalEdgeStyle;rounded=0;orthogonalLoop=1;jettySize=auto;html=1;entryX=0.5;entryY=0;entryDx=0;entryDy=0;strokeColor=light-dark(#000000,#000000);strokeWidth=2;exitX=0.5;exitY=1;exitDx=0;exitDy=0;" edge="1" parent="1" source="G9qvY0UhT8ZJuswkd91p-5" target="G9qvY0UhT8ZJuswkd91p-6">
          <mxGeometry relative="1" as="geometry">
            <mxPoint x="210" y="260" as="sourcePoint" />
            <mxPoint x="210" y="790" as="targetPoint" />
          </mxGeometry>
        </mxCell>
        <mxCell id="G9qvY0UhT8ZJuswkd91p-131" value="" style="endArrow=none;html=1;rounded=0;entryX=0;entryY=0.5;entryDx=0;entryDy=0;fontSize=16;strokeWidth=2;strokeColor=light-dark(#000000,#000000);" edge="1" parent="1" source="G9qvY0UhT8ZJuswkd91p-96" target="G9qvY0UhT8ZJuswkd91p-6">
          <mxGeometry width="50" height="50" relative="1" as="geometry">
            <mxPoint x="160" y="760" as="sourcePoint" />
            <mxPoint x="251" y="830" as="targetPoint" />
          </mxGeometry>
        </mxCell>
        <mxCell id="G9qvY0UhT8ZJuswkd91p-132" value="" style="endArrow=none;html=1;rounded=0;entryX=0;entryY=0.5;entryDx=0;entryDy=0;fontSize=16;strokeWidth=2;strokeColor=light-dark(#000000,#000000);exitX=1;exitY=0.5;exitDx=0;exitDy=0;" edge="1" parent="1" source="G9qvY0UhT8ZJuswkd91p-66" target="G9qvY0UhT8ZJuswkd91p-65">
          <mxGeometry width="50" height="50" relative="1" as="geometry">
            <mxPoint x="801" y="1600.0000000000002" as="sourcePoint" />
            <mxPoint x="931" y="1601.0000000000002" as="targetPoint" />
          </mxGeometry>
        </mxCell>
        <mxCell id="G9qvY0UhT8ZJuswkd91p-133" value="" style="endArrow=none;html=1;rounded=0;fontSize=16;strokeWidth=2;strokeColor=light-dark(#000000,#000000);exitX=1;exitY=0.5;exitDx=0;exitDy=0;" edge="1" parent="1" source="G9qvY0UhT8ZJuswkd91p-6" target="G9qvY0UhT8ZJuswkd91p-7">
          <mxGeometry width="50" height="50" relative="1" as="geometry">
            <mxPoint x="440" y="740" as="sourcePoint" />
            <mxPoint x="570" y="741" as="targetPoint" />
          </mxGeometry>
        </mxCell>
        <mxCell id="G9qvY0UhT8ZJuswkd91p-134" value="" style="endArrow=classic;html=1;rounded=0;entryX=0.5;entryY=0;entryDx=0;entryDy=0;fontSize=16;strokeWidth=2;strokeColor=light-dark(#000000,#000000);exitX=0.5;exitY=1;exitDx=0;exitDy=0;endFill=1;" edge="1" parent="1" source="G9qvY0UhT8ZJuswkd91p-39" target="G9qvY0UhT8ZJuswkd91p-7">
          <mxGeometry width="50" height="50" relative="1" as="geometry">
            <mxPoint x="1020" y="670" as="sourcePoint" />
            <mxPoint x="1150" y="671" as="targetPoint" />
          </mxGeometry>
        </mxCell>
        <mxCell id="G9qvY0UhT8ZJuswkd91p-135" value="" style="endArrow=none;html=1;rounded=0;entryX=1;entryY=0.5;entryDx=0;entryDy=0;fontSize=16;strokeWidth=2;strokeColor=light-dark(#000000,#000000);exitX=0;exitY=0.5;exitDx=0;exitDy=0;" edge="1" parent="1" source="G9qvY0UhT8ZJuswkd91p-17" target="G9qvY0UhT8ZJuswkd91p-6">
          <mxGeometry width="50" height="50" relative="1" as="geometry">
            <mxPoint x="1020" y="700" as="sourcePoint" />
            <mxPoint x="1150" y="701" as="targetPoint" />
          </mxGeometry>
        </mxCell>
        <mxCell id="G9qvY0UhT8ZJuswkd91p-136" value="" style="endArrow=none;html=1;rounded=0;entryX=0;entryY=0.5;entryDx=0;entryDy=0;fontSize=16;strokeWidth=2;strokeColor=light-dark(#000000,#000000);exitX=1;exitY=0.5;exitDx=0;exitDy=0;" edge="1" parent="1" source="G9qvY0UhT8ZJuswkd91p-6" target="G9qvY0UhT8ZJuswkd91p-39">
          <mxGeometry width="50" height="50" relative="1" as="geometry">
            <mxPoint x="1000" y="700" as="sourcePoint" />
            <mxPoint x="1130" y="701" as="targetPoint" />
          </mxGeometry>
        </mxCell>
        <mxCell id="G9qvY0UhT8ZJuswkd91p-137" value="" style="endArrow=none;html=1;rounded=0;entryX=0;entryY=0.5;entryDx=0;entryDy=0;fontSize=16;strokeWidth=2;strokeColor=light-dark(#000000,#000000);" edge="1" parent="1" target="G9qvY0UhT8ZJuswkd91p-62">
          <mxGeometry width="50" height="50" relative="1" as="geometry">
            <mxPoint x="400" y="780" as="sourcePoint" />
            <mxPoint x="1160" y="691" as="targetPoint" />
          </mxGeometry>
        </mxCell>
        <mxCell id="G9qvY0UhT8ZJuswkd91p-138" value="" style="endArrow=none;html=1;rounded=0;entryX=0;entryY=0.5;entryDx=0;entryDy=0;fontSize=16;strokeWidth=2;strokeColor=light-dark(#000000,#000000);exitX=1;exitY=0.5;exitDx=0;exitDy=0;" edge="1" parent="1" source="G9qvY0UhT8ZJuswkd91p-6" target="G9qvY0UhT8ZJuswkd91p-25">
          <mxGeometry width="50" height="50" relative="1" as="geometry">
            <mxPoint x="1090" y="750" as="sourcePoint" />
            <mxPoint x="1220" y="751" as="targetPoint" />
          </mxGeometry>
        </mxCell>
        <mxCell id="G9qvY0UhT8ZJuswkd91p-139" value="" style="endArrow=none;html=1;rounded=0;entryX=0;entryY=0.5;entryDx=0;entryDy=0;fontSize=16;strokeWidth=2;strokeColor=light-dark(#000000,#000000);exitX=0.995;exitY=0.501;exitDx=0;exitDy=0;exitPerimeter=0;" edge="1" parent="1" source="G9qvY0UhT8ZJuswkd91p-6" target="G9qvY0UhT8ZJuswkd91p-63">
          <mxGeometry width="50" height="50" relative="1" as="geometry">
            <mxPoint x="400" y="770" as="sourcePoint" />
            <mxPoint x="490" y="1291" as="targetPoint" />
          </mxGeometry>
        </mxCell>
        <mxCell id="G9qvY0UhT8ZJuswkd91p-140" value="" style="endArrow=none;html=1;rounded=0;entryX=0;entryY=0.5;entryDx=0;entryDy=0;fontSize=16;strokeWidth=2;strokeColor=light-dark(#000000,#000000);exitX=1;exitY=0.5;exitDx=0;exitDy=0;" edge="1" parent="1" source="G9qvY0UhT8ZJuswkd91p-6" target="G9qvY0UhT8ZJuswkd91p-64">
          <mxGeometry width="50" height="50" relative="1" as="geometry">
            <mxPoint x="330" y="1200" as="sourcePoint" />
            <mxPoint x="460" y="1201" as="targetPoint" />
          </mxGeometry>
        </mxCell>
        <mxCell id="G9qvY0UhT8ZJuswkd91p-141" value="" style="endArrow=none;html=1;rounded=0;entryX=1;entryY=0.5;entryDx=0;entryDy=0;fontSize=16;strokeWidth=2;strokeColor=light-dark(#000000,#000000);exitX=0;exitY=0.5;exitDx=0;exitDy=0;" edge="1" parent="1" source="G9qvY0UhT8ZJuswkd91p-8" target="G9qvY0UhT8ZJuswkd91p-42">
          <mxGeometry width="50" height="50" relative="1" as="geometry">
            <mxPoint x="200" y="1220" as="sourcePoint" />
            <mxPoint x="330" y="1221" as="targetPoint" />
          </mxGeometry>
        </mxCell>
        <mxCell id="G9qvY0UhT8ZJuswkd91p-142" value="" style="endArrow=none;html=1;rounded=0;entryX=0;entryY=0.5;entryDx=0;entryDy=0;fontSize=16;strokeWidth=2;strokeColor=light-dark(#000000,#000000);exitX=1;exitY=0.5;exitDx=0;exitDy=0;" edge="1" parent="1" source="G9qvY0UhT8ZJuswkd91p-33" target="G9qvY0UhT8ZJuswkd91p-35">
          <mxGeometry width="50" height="50" relative="1" as="geometry">
            <mxPoint x="801" y="-300" as="sourcePoint" />
            <mxPoint x="931" y="-299" as="targetPoint" />
          </mxGeometry>
        </mxCell>
        <mxCell id="G9qvY0UhT8ZJuswkd91p-143" value="" style="endArrow=classic;html=1;rounded=0;entryX=0.5;entryY=0;entryDx=0;entryDy=0;fontSize=16;strokeWidth=2;strokeColor=light-dark(#000000,#000000);exitX=0.5;exitY=1;exitDx=0;exitDy=0;endFill=1;" edge="1" parent="1" source="G9qvY0UhT8ZJuswkd91p-7" target="G9qvY0UhT8ZJuswkd91p-42">
          <mxGeometry width="50" height="50" relative="1" as="geometry">
            <mxPoint x="430" y="1310" as="sourcePoint" />
            <mxPoint x="560" y="1311" as="targetPoint" />
          </mxGeometry>
        </mxCell>
        <mxCell id="G9qvY0UhT8ZJuswkd91p-144" value="" style="endArrow=none;html=1;rounded=0;entryX=0;entryY=0.5;entryDx=0;entryDy=0;fontSize=16;strokeWidth=2;strokeColor=light-dark(#000000,#000000);exitX=1;exitY=0.5;exitDx=0;exitDy=0;" edge="1" parent="1" source="G9qvY0UhT8ZJuswkd91p-7" target="G9qvY0UhT8ZJuswkd91p-40">
          <mxGeometry width="50" height="50" relative="1" as="geometry">
            <mxPoint x="570" y="879.5" as="sourcePoint" />
            <mxPoint x="700" y="880.5" as="targetPoint" />
          </mxGeometry>
        </mxCell>
        <mxCell id="G9qvY0UhT8ZJuswkd91p-145" value="게시글 좋아요" style="ellipse;whiteSpace=wrap;html=1;fontSize=16;strokeColor=light-dark(#000000,#000000);align=center;verticalAlign=middle;fontFamily=Helvetica;fontColor=light-dark(#000000,#000000);fontStyle=1;labelBackgroundColor=none;fillColor=light-dark(#55C6FF,#0ABEEB);gradientColor=none;gradientDirection=east;opacity=80;strokeWidth=3;" vertex="1" parent="1">
          <mxGeometry x="790" y="590" width="120" height="80" as="geometry" />
        </mxCell>
        <mxCell id="G9qvY0UhT8ZJuswkd91p-146" value="" style="endArrow=none;html=1;rounded=0;entryX=0;entryY=0.5;entryDx=0;entryDy=0;fontSize=16;strokeWidth=2;strokeColor=light-dark(#000000,#000000);exitX=1;exitY=0.5;exitDx=0;exitDy=0;" edge="1" parent="1" source="G9qvY0UhT8ZJuswkd91p-7" target="G9qvY0UhT8ZJuswkd91p-145">
          <mxGeometry width="50" height="50" relative="1" as="geometry">
            <mxPoint x="665" y="850" as="sourcePoint" />
            <mxPoint x="795" y="851" as="targetPoint" />
          </mxGeometry>
        </mxCell>
        <mxCell id="G9qvY0UhT8ZJuswkd91p-147" value="" style="endArrow=none;html=1;rounded=0;entryX=0;entryY=0.5;entryDx=0;entryDy=0;fontSize=16;strokeWidth=2;strokeColor=light-dark(#000000,#000000);exitX=1;exitY=0.5;exitDx=0;exitDy=0;" edge="1" parent="1" source="G9qvY0UhT8ZJuswkd91p-7" target="G9qvY0UhT8ZJuswkd91p-71">
          <mxGeometry width="50" height="50" relative="1" as="geometry">
            <mxPoint x="680" y="900" as="sourcePoint" />
            <mxPoint x="810" y="901" as="targetPoint" />
          </mxGeometry>
        </mxCell>
        <mxCell id="G9qvY0UhT8ZJuswkd91p-148" value="" style="endArrow=none;html=1;rounded=0;entryX=0;entryY=0.5;entryDx=0;entryDy=0;fontSize=16;strokeWidth=2;strokeColor=light-dark(#000000,#000000);exitX=1;exitY=0.5;exitDx=0;exitDy=0;" edge="1" parent="1" source="G9qvY0UhT8ZJuswkd91p-25" target="G9qvY0UhT8ZJuswkd91p-33">
          <mxGeometry width="50" height="50" relative="1" as="geometry">
            <mxPoint x="640" y="-300" as="sourcePoint" />
            <mxPoint x="770" y="-299" as="targetPoint" />
          </mxGeometry>
        </mxCell>
        <mxCell id="G9qvY0UhT8ZJuswkd91p-149" value="" style="endArrow=none;html=1;rounded=0;entryX=0;entryY=0.5;entryDx=0;entryDy=0;fontSize=16;strokeWidth=2;strokeColor=light-dark(#000000,#000000);exitX=1;exitY=0.5;exitDx=0;exitDy=0;" edge="1" parent="1" source="G9qvY0UhT8ZJuswkd91p-25" target="G9qvY0UhT8ZJuswkd91p-26">
          <mxGeometry width="50" height="50" relative="1" as="geometry">
            <mxPoint x="620" y="-280" as="sourcePoint" />
            <mxPoint x="750" y="-279" as="targetPoint" />
          </mxGeometry>
        </mxCell>
        <mxCell id="G9qvY0UhT8ZJuswkd91p-150" value="" style="endArrow=none;html=1;rounded=0;entryX=0;entryY=0.5;entryDx=0;entryDy=0;fontSize=16;strokeWidth=2;strokeColor=light-dark(#000000,#000000);exitX=1;exitY=0.5;exitDx=0;exitDy=0;" edge="1" parent="1" source="G9qvY0UhT8ZJuswkd91p-33" target="G9qvY0UhT8ZJuswkd91p-37">
          <mxGeometry width="50" height="50" relative="1" as="geometry">
            <mxPoint x="720" y="-490" as="sourcePoint" />
            <mxPoint x="850" y="-489" as="targetPoint" />
          </mxGeometry>
        </mxCell>
        <mxCell id="G9qvY0UhT8ZJuswkd91p-151" value="" style="endArrow=none;html=1;rounded=0;entryX=0;entryY=0.5;entryDx=0;entryDy=0;fontSize=16;strokeWidth=2;strokeColor=light-dark(#000000,#000000);exitX=1;exitY=0.5;exitDx=0;exitDy=0;" edge="1" parent="1" source="G9qvY0UhT8ZJuswkd91p-33" target="G9qvY0UhT8ZJuswkd91p-36">
          <mxGeometry width="50" height="50" relative="1" as="geometry">
            <mxPoint x="720" y="-530" as="sourcePoint" />
            <mxPoint x="850" y="-529" as="targetPoint" />
          </mxGeometry>
        </mxCell>
        <mxCell id="G9qvY0UhT8ZJuswkd91p-152" value="" style="endArrow=none;html=1;rounded=0;entryX=0;entryY=0.5;entryDx=0;entryDy=0;fontSize=16;strokeWidth=2;strokeColor=light-dark(#000000,#000000);exitX=1;exitY=0.5;exitDx=0;exitDy=0;" edge="1" parent="1" source="G9qvY0UhT8ZJuswkd91p-37" target="G9qvY0UhT8ZJuswkd91p-38">
          <mxGeometry width="50" height="50" relative="1" as="geometry">
            <mxPoint x="1050" y="-520" as="sourcePoint" />
            <mxPoint x="1180" y="-519" as="targetPoint" />
          </mxGeometry>
        </mxCell>
        <mxCell id="G9qvY0UhT8ZJuswkd91p-153" value="" style="endArrow=none;html=1;rounded=0;entryX=0.5;entryY=0;entryDx=0;entryDy=0;fontSize=16;strokeWidth=2;strokeColor=light-dark(#000000,#000000);" edge="1" parent="1" target="G9qvY0UhT8ZJuswkd91p-38">
          <mxGeometry width="50" height="50" relative="1" as="geometry">
            <mxPoint x="1187" y="-750" as="sourcePoint" />
            <mxPoint x="1182" y="-559" as="targetPoint" />
          </mxGeometry>
        </mxCell>
        <mxCell id="G9qvY0UhT8ZJuswkd91p-154" value="" style="endArrow=none;html=1;rounded=0;entryX=0;entryY=0.5;entryDx=0;entryDy=0;fontSize=16;strokeWidth=2;strokeColor=light-dark(#000000,#000000);exitX=1;exitY=0.5;exitDx=0;exitDy=0;" edge="1" parent="1" source="G9qvY0UhT8ZJuswkd91p-33" target="G9qvY0UhT8ZJuswkd91p-34">
          <mxGeometry width="50" height="50" relative="1" as="geometry">
            <mxPoint x="890" y="-250" as="sourcePoint" />
            <mxPoint x="1020" y="-249" as="targetPoint" />
          </mxGeometry>
        </mxCell>
        <mxCell id="G9qvY0UhT8ZJuswkd91p-155" value="" style="endArrow=none;html=1;rounded=0;entryX=0;entryY=0.5;entryDx=0;entryDy=0;fontSize=16;strokeWidth=2;strokeColor=light-dark(#000000,#000000);exitX=1;exitY=0.5;exitDx=0;exitDy=0;" edge="1" parent="1" source="G9qvY0UhT8ZJuswkd91p-26" target="G9qvY0UhT8ZJuswkd91p-31">
          <mxGeometry width="50" height="50" relative="1" as="geometry">
            <mxPoint x="870" y="-40" as="sourcePoint" />
            <mxPoint x="930" y="130" as="targetPoint" />
          </mxGeometry>
        </mxCell>
        <mxCell id="G9qvY0UhT8ZJuswkd91p-156" value="" style="endArrow=none;html=1;rounded=0;entryX=0;entryY=0.5;entryDx=0;entryDy=0;fontSize=16;strokeWidth=2;strokeColor=light-dark(#000000,#000000);exitX=1;exitY=0.5;exitDx=0;exitDy=0;" edge="1" parent="1" source="G9qvY0UhT8ZJuswkd91p-26" target="G9qvY0UhT8ZJuswkd91p-30">
          <mxGeometry width="50" height="50" relative="1" as="geometry">
            <mxPoint x="920" y="-150" as="sourcePoint" />
            <mxPoint x="980" y="150" as="targetPoint" />
          </mxGeometry>
        </mxCell>
        <mxCell id="G9qvY0UhT8ZJuswkd91p-157" value="" style="endArrow=none;html=1;rounded=0;entryX=0;entryY=0.5;entryDx=0;entryDy=0;fontSize=16;strokeWidth=2;strokeColor=light-dark(#000000,#000000);exitX=1;exitY=0.5;exitDx=0;exitDy=0;" edge="1" parent="1" source="G9qvY0UhT8ZJuswkd91p-26" target="G9qvY0UhT8ZJuswkd91p-29">
          <mxGeometry width="50" height="50" relative="1" as="geometry">
            <mxPoint x="855" y="-330" as="sourcePoint" />
            <mxPoint x="915" y="90" as="targetPoint" />
          </mxGeometry>
        </mxCell>
        <mxCell id="G9qvY0UhT8ZJuswkd91p-158" value="" style="endArrow=none;html=1;rounded=0;entryX=0;entryY=0.5;entryDx=0;entryDy=0;fontSize=16;strokeWidth=2;strokeColor=light-dark(#000000,#000000);exitX=1;exitY=0.5;exitDx=0;exitDy=0;" edge="1" parent="1" source="G9qvY0UhT8ZJuswkd91p-26" target="G9qvY0UhT8ZJuswkd91p-27">
          <mxGeometry width="50" height="50" relative="1" as="geometry">
            <mxPoint x="930" y="160" as="sourcePoint" />
            <mxPoint x="990" y="220" as="targetPoint" />
          </mxGeometry>
        </mxCell>
        <mxCell id="G9qvY0UhT8ZJuswkd91p-159" value="" style="endArrow=none;html=1;rounded=0;fontSize=16;strokeWidth=2;strokeColor=light-dark(#000000,#000000);exitX=1;exitY=0.5;exitDx=0;exitDy=0;" edge="1" parent="1" source="G9qvY0UhT8ZJuswkd91p-17" target="G9qvY0UhT8ZJuswkd91p-16">
          <mxGeometry width="50" height="50" relative="1" as="geometry">
            <mxPoint x="751" y="220" as="sourcePoint" />
            <mxPoint x="811" y="400" as="targetPoint" />
          </mxGeometry>
        </mxCell>
        <mxCell id="G9qvY0UhT8ZJuswkd91p-160" value="" style="endArrow=none;html=1;rounded=0;entryX=1;entryY=0.5;entryDx=0;entryDy=0;fontSize=16;strokeWidth=2;strokeColor=light-dark(#000000,#000000);exitX=0;exitY=0.5;exitDx=0;exitDy=0;" edge="1" parent="1" source="G9qvY0UhT8ZJuswkd91p-15" target="G9qvY0UhT8ZJuswkd91p-16">
          <mxGeometry width="50" height="50" relative="1" as="geometry">
            <mxPoint x="1183.5" y="270" as="sourcePoint" />
            <mxPoint x="1243.5" y="450" as="targetPoint" />
          </mxGeometry>
        </mxCell>
        <mxCell id="G9qvY0UhT8ZJuswkd91p-161" value="" style="endArrow=none;html=1;rounded=0;entryX=1;entryY=0.5;entryDx=0;entryDy=0;fontSize=16;strokeWidth=2;strokeColor=light-dark(#000000,#000000);exitX=0;exitY=0.5;exitDx=0;exitDy=0;" edge="1" parent="1" source="G9qvY0UhT8ZJuswkd91p-18" target="G9qvY0UhT8ZJuswkd91p-16">
          <mxGeometry width="50" height="50" relative="1" as="geometry">
            <mxPoint x="972" y="440" as="sourcePoint" />
            <mxPoint x="930" y="495" as="targetPoint" />
          </mxGeometry>
        </mxCell>
        <mxCell id="G9qvY0UhT8ZJuswkd91p-162" value="" style="endArrow=none;html=1;rounded=0;entryX=0;entryY=0.5;entryDx=0;entryDy=0;fontSize=16;strokeWidth=2;strokeColor=light-dark(#000000,#000000);exitX=1;exitY=0.5;exitDx=0;exitDy=0;" edge="1" parent="1" source="G9qvY0UhT8ZJuswkd91p-42" target="G9qvY0UhT8ZJuswkd91p-61">
          <mxGeometry width="50" height="50" relative="1" as="geometry">
            <mxPoint x="262" y="1395" as="sourcePoint" />
            <mxPoint x="220" y="1340" as="targetPoint" />
          </mxGeometry>
        </mxCell>
        <mxCell id="G9qvY0UhT8ZJuswkd91p-163" value="" style="endArrow=none;html=1;rounded=0;entryX=1;entryY=0.5;entryDx=0;entryDy=0;fontSize=16;strokeWidth=2;strokeColor=light-dark(#000000,#000000);" edge="1" parent="1" source="G9qvY0UhT8ZJuswkd91p-10" target="G9qvY0UhT8ZJuswkd91p-40">
          <mxGeometry width="50" height="50" relative="1" as="geometry">
            <mxPoint x="1032" y="1065" as="sourcePoint" />
            <mxPoint x="990" y="1010" as="targetPoint" />
          </mxGeometry>
        </mxCell>
        <mxCell id="G9qvY0UhT8ZJuswkd91p-164" value="" style="endArrow=none;html=1;rounded=0;entryX=1;entryY=0.5;entryDx=0;entryDy=0;fontSize=16;strokeWidth=2;strokeColor=light-dark(#000000,#000000);exitX=0;exitY=0.5;exitDx=0;exitDy=0;" edge="1" parent="1" source="G9qvY0UhT8ZJuswkd91p-41" target="G9qvY0UhT8ZJuswkd91p-10">
          <mxGeometry width="50" height="50" relative="1" as="geometry">
            <mxPoint x="1252" y="1065" as="sourcePoint" />
            <mxPoint x="1210" y="1010" as="targetPoint" />
          </mxGeometry>
        </mxCell>
        <mxCell id="G9qvY0UhT8ZJuswkd91p-165" value="" style="endArrow=none;html=1;rounded=0;entryX=1;entryY=0.5;entryDx=0;entryDy=0;fontSize=16;strokeWidth=2;strokeColor=light-dark(#000000,#000000);exitX=0;exitY=0.5;exitDx=0;exitDy=0;" edge="1" parent="1" source="G9qvY0UhT8ZJuswkd91p-40" target="G9qvY0UhT8ZJuswkd91p-42">
          <mxGeometry width="50" height="50" relative="1" as="geometry">
            <mxPoint x="790" y="1140" as="sourcePoint" />
            <mxPoint x="862" y="1320" as="targetPoint" />
          </mxGeometry>
        </mxCell>
        <mxCell id="G9qvY0UhT8ZJuswkd91p-167" value="" style="endArrow=none;html=1;rounded=0;entryX=1;entryY=0.5;entryDx=0;entryDy=0;fontSize=16;strokeWidth=2;strokeColor=light-dark(#000000,#000000);exitX=0;exitY=0.5;exitDx=0;exitDy=0;" edge="1" parent="1" source="G9qvY0UhT8ZJuswkd91p-72" target="G9qvY0UhT8ZJuswkd91p-61">
          <mxGeometry width="50" height="50" relative="1" as="geometry">
            <mxPoint x="1039" y="1050" as="sourcePoint" />
            <mxPoint x="980" y="1050" as="targetPoint" />
          </mxGeometry>
        </mxCell>
        <mxCell id="G9qvY0UhT8ZJuswkd91p-168" value="" style="endArrow=none;html=1;rounded=0;entryX=1;entryY=0.5;entryDx=0;entryDy=0;fontSize=16;strokeWidth=2;strokeColor=light-dark(#000000,#000000);exitX=0;exitY=0.5;exitDx=0;exitDy=0;" edge="1" parent="1" source="G9qvY0UhT8ZJuswkd91p-21" target="G9qvY0UhT8ZJuswkd91p-8">
          <mxGeometry width="50" height="50" relative="1" as="geometry">
            <mxPoint x="1059" y="1080" as="sourcePoint" />
            <mxPoint x="1000" y="1080" as="targetPoint" />
          </mxGeometry>
        </mxCell>
        <mxCell id="G9qvY0UhT8ZJuswkd91p-169" value="" style="endArrow=none;html=1;rounded=0;entryX=1;entryY=0.5;entryDx=0;entryDy=0;fontSize=16;strokeWidth=2;strokeColor=light-dark(#000000,#000000);exitX=0;exitY=0.5;exitDx=0;exitDy=0;" edge="1" parent="1" source="G9qvY0UhT8ZJuswkd91p-66" target="G9qvY0UhT8ZJuswkd91p-63">
          <mxGeometry width="50" height="50" relative="1" as="geometry">
            <mxPoint x="849" y="1680" as="sourcePoint" />
            <mxPoint x="790" y="1680" as="targetPoint" />
          </mxGeometry>
        </mxCell>
        <mxCell id="G9qvY0UhT8ZJuswkd91p-170" value="" style="endArrow=none;html=1;rounded=0;entryX=1;entryY=0.5;entryDx=0;entryDy=0;fontSize=16;strokeWidth=2;strokeColor=light-dark(#000000,#000000);exitX=0;exitY=0.5;exitDx=0;exitDy=0;" edge="1" parent="1" source="G9qvY0UhT8ZJuswkd91p-69" target="G9qvY0UhT8ZJuswkd91p-64">
          <mxGeometry width="50" height="50" relative="1" as="geometry">
            <mxPoint x="1179" y="1600" as="sourcePoint" />
            <mxPoint x="1120" y="1600" as="targetPoint" />
          </mxGeometry>
        </mxCell>
        <mxCell id="G9qvY0UhT8ZJuswkd91p-171" value="" style="endArrow=none;html=1;rounded=0;entryX=1;entryY=0.5;entryDx=0;entryDy=0;fontSize=16;strokeWidth=2;strokeColor=light-dark(#000000,#000000);exitX=0;exitY=0.5;exitDx=0;exitDy=0;" edge="1" parent="1" source="G9qvY0UhT8ZJuswkd91p-20" target="G9qvY0UhT8ZJuswkd91p-21">
          <mxGeometry width="50" height="50" relative="1" as="geometry">
            <mxPoint x="1229" y="1180" as="sourcePoint" />
            <mxPoint x="1170" y="1180" as="targetPoint" />
          </mxGeometry>
        </mxCell>
        <mxCell id="G9qvY0UhT8ZJuswkd91p-172" value="" style="endArrow=none;html=1;rounded=0;entryX=1;entryY=0.5;entryDx=0;entryDy=0;fontSize=16;strokeWidth=2;strokeColor=light-dark(#000000,#000000);exitX=0;exitY=0.5;exitDx=0;exitDy=0;" edge="1" parent="1" source="G9qvY0UhT8ZJuswkd91p-22" target="G9qvY0UhT8ZJuswkd91p-21">
          <mxGeometry width="50" height="50" relative="1" as="geometry">
            <mxPoint x="1259" y="1180" as="sourcePoint" />
            <mxPoint x="1200" y="1180" as="targetPoint" />
          </mxGeometry>
        </mxCell>
        <mxCell id="G9qvY0UhT8ZJuswkd91p-173" value="" style="endArrow=none;html=1;rounded=0;entryX=1;entryY=0.5;entryDx=0;entryDy=0;fontSize=16;strokeWidth=2;strokeColor=light-dark(#000000,#000000);exitX=0;exitY=0.5;exitDx=0;exitDy=0;" edge="1" parent="1" source="G9qvY0UhT8ZJuswkd91p-67" target="G9qvY0UhT8ZJuswkd91p-66">
          <mxGeometry width="50" height="50" relative="1" as="geometry">
            <mxPoint x="1239" y="1660" as="sourcePoint" />
            <mxPoint x="1180" y="1660" as="targetPoint" />
          </mxGeometry>
        </mxCell>
        <mxCell id="G9qvY0UhT8ZJuswkd91p-175" value="" style="endArrow=none;html=1;rounded=0;entryX=1;entryY=0.5;entryDx=0;entryDy=0;fontSize=16;strokeWidth=2;strokeColor=light-dark(#000000,#000000);exitX=0.01;exitY=0.447;exitDx=0;exitDy=0;exitPerimeter=0;" edge="1" parent="1" source="G9qvY0UhT8ZJuswkd91p-68" target="G9qvY0UhT8ZJuswkd91p-69">
          <mxGeometry width="50" height="50" relative="1" as="geometry">
            <mxPoint x="1239" y="1680" as="sourcePoint" />
            <mxPoint x="1180" y="1680" as="targetPoint" />
          </mxGeometry>
        </mxCell>
        <mxCell id="G9qvY0UhT8ZJuswkd91p-176" value="" style="endArrow=none;html=1;rounded=0;entryX=1;entryY=0.5;entryDx=0;entryDy=0;fontSize=16;strokeWidth=2;strokeColor=light-dark(#000000,#000000);exitX=0;exitY=0.5;exitDx=0;exitDy=0;" edge="1" parent="1" source="G9qvY0UhT8ZJuswkd91p-70" target="G9qvY0UhT8ZJuswkd91p-69">
          <mxGeometry width="50" height="50" relative="1" as="geometry">
            <mxPoint x="1239" y="1700" as="sourcePoint" />
            <mxPoint x="1180" y="1700" as="targetPoint" />
          </mxGeometry>
        </mxCell>
      </root>
    </mxGraphModel>
  </diagram>
  <diagram id="EJmpx3ybjSlrFOFFrPYl" name="페이지-2">
    <mxGraphModel dx="1205" dy="743" grid="1" gridSize="10" guides="1" tooltips="1" connect="1" arrows="1" fold="1" page="1" pageScale="1" pageWidth="827" pageHeight="1169" math="0" shadow="0">
      <root>
        <mxCell id="0" />
        <mxCell id="1" parent="0" />
      </root>
    </mxGraphModel>
  </diagram>
</mxfile>
